<?xml version="1.0" encoding="utf-8"?>
<!-- Generator: Adobe Illustrator 24.3.0, SVG Export Plug-In . SVG Version: 6.00 Build 0)  -->
<svg version="1.1" id="Layer_1" xmlns="http://www.w3.org/2000/svg" xmlns:xlink="http://www.w3.org/1999/xlink" x="0px" y="0px"
	 viewBox="0 0 512 512" style="enable-background:new 0 0 512 512;" xml:space="preserve">
<style type="text/css">
	.st0{stroke:#FFFFFF;stroke-miterlimit:10;}
	.st1{stroke:#00AA4C;stroke-miterlimit:10;}
</style>
<path d="M342.4,271.4c-23-35.9-62.3-57.4-105-57.4c-42.7,0-81.9,21.5-105,57.4L76.9,358c-9.2,14.4-13.5,31-12.3,48
	c1.2,17,7.6,32.9,18.7,45.9c11.1,13,25.8,21.8,42.4,25.6c16.6,3.8,33.7,2.2,49.3-4.7l1-0.5c39.3-17,84.3-16.8,123.5,0.5
	c10.1,4.4,20.8,6.7,31.7,6.7c5.9,0,11.8-0.7,17.7-2c16.6-3.8,31.3-12.7,42.4-25.6c11.1-13,17.6-28.8,18.8-45.9
	c1.2-17-3.1-33.6-12.3-48L342.4,271.4z M368.6,432.3c-14.1,16.5-37,21.7-56.8,13c-23.6-10.4-49-15.6-74.4-15.6
	c-25.4,0-50.7,5.2-74.3,15.6l-0.7,0.3c-19.7,8.3-42.2,3.1-56.2-13.3c-14.1-16.5-15.7-39.9-4-58.2l55.5-86.6
	c17.5-27.3,47.3-43.6,79.7-43.6s62.2,16.3,79.7,43.6l55.5,86.6C384.4,392.4,382.7,415.8,368.6,432.3z"/>
<path class="st0" d="M91.9,271.2c16.5-6.3,29.1-19.7,35.3-37.5c6-17,5.5-36.1-1.4-53.9c-6.9-17.8-19.3-32.3-35.1-40.9
	c-16.6-9-34.8-10.5-51.3-4.1C6.2,147.5-9,188.5,5.5,226.2c11.6,30,38.5,48.9,65.8,48.9C78.2,275.1,85.2,273.8,91.9,271.2z
	 M33.5,215.4c-8.5-22.2-1-45.8,16.7-52.6c3.2-1.2,6.6-1.8,10-1.8c5.3,0,10.8,1.5,16.2,4.3c9.5,5.2,17.2,14.2,21.5,25.3
	c4.3,11.2,4.7,22.9,1.1,33.2c-3.3,9.4-9.6,16.3-17.8,19.4l0,0C63.4,250.1,42,237.6,33.5,215.4z"/>
<path d="M199.6,203.4c41.5,0,75.2-38.4,75.2-85.7c0-47.3-33.7-85.7-75.2-85.7c-41.5,0-75.2,38.4-75.2,85.7
	C124.4,164.9,158.1,203.4,199.6,203.4z M199.6,62c24.9,0,45.2,25,45.2,55.7c0,30.7-20.3,55.7-45.2,55.7s-45.2-25-45.2-55.7
	C154.4,87,174.7,62,199.6,62z"/>
<path class="st1" d="M329.5,224.4L329.5,224.4c6.4,2.1,12.9,3.1,19.4,3.1c30.2,0,59.7-22,71-55.8c6.5-19.5,6.1-40.1-1.2-58
	C411,95,397,81.4,379,75.4c-17.9-6-37.4-3.5-54.7,7c-16.5,10-29.2,26.2-35.7,45.7C275.1,169.2,293.4,212.4,329.5,224.4z
	 M317.2,137.6c4.2-12.7,12.3-23.2,22.7-29.5c9.7-5.8,20.2-7.3,29.6-4.2c9.5,3.1,17,10.6,21.2,21.1c4.6,11.3,4.8,24.5,0.5,37.2
	c-8.4,25.4-31.9,40.5-52.4,33.7C318.5,189.2,308.8,163,317.2,137.6z"/>
<path class="st0" d="M487.9,214.4L487.9,214.4c-28.6-21.1-71.4-12-95.4,20.4c-24,32.4-20.2,76,8.3,97.1
	c10.4,7.7,22.7,11.4,35.3,11.4c21.9,0,44.8-11.2,60-31.8C520.2,279.2,516.4,235.6,487.9,214.4z M472.1,293.7
	c-14.2,19.1-38.1,25.5-53.4,14.1c-15.3-11.3-16.2-36-2.1-55.1C426,240,439.7,233,452.4,233c6.4,0,12.5,1.8,17.6,5.6
	C485.3,249.9,486.2,274.6,472.1,293.7z"/>
</svg>
